<?xml version="1.0" encoding="utf-8"?>
<!DOCTYPE svg PUBLIC "-//W3C//DTD SVG 1.1//EN" "http://www.w3.org/Graphics/SVG/1.1/DTD/svg11.dtd">
<svg version="1.1"  xmlns="http://www.w3.org/2000/svg" xmlns:xlink="http://www.w3.org/1999/xlink" x="0px" y="0px"
	 width="128" height="128" >
<rect fill="#CB2027" width="128" height="128"/>

<path fill="#FFFFFF" transform="scale(0.7) translate(30,10)" d="M64.347,0C21.569,0,0,30.67,0,56.246c0,15.486,5.863,29.263,18.438,34.397
	c2.062,0.843,3.909,0.029,4.507-2.254c0.416-1.58,1.4-5.566,1.839-7.226c0.603-2.258,0.369-3.05-1.295-5.018
	c-3.626-4.277-5.943-9.814-5.943-17.657c0-22.754,17.024-43.124,44.33-43.124c24.179,0,37.463,14.774,37.463,34.505
	c0,25.961-11.489,47.872-28.545,47.872c-9.419,0-16.47-7.79-14.21-17.344c2.706-11.406,7.948-23.716,7.948-31.949
	c0-7.37-3.956-13.517-12.143-13.517c-9.629,0-17.364,9.961-17.364,23.305c0,8.499,2.872,14.247,2.872,14.247
	s-9.854,41.751-11.581,49.063c-3.44,14.562-0.517,32.413-0.27,34.216c0.145,1.068,1.518,1.322,2.14,0.515
	c0.888-1.159,12.356-15.317,16.255-29.464c1.103-4.006,6.333-24.749,6.333-24.749c3.128,5.967,12.271,11.223,21.994,11.223
	c28.944,0,48.581-26.387,48.581-61.707C121.349,24.873,98.728,0,64.347,0z"/>
</svg>
